STARTFONT 2.1
FONT -FontForge-Henny Penny-Book-R-Normal--11-110-72-72-P-63-ISO10646-1
SIZE 11 72 72
FONTBOUNDINGBOX 16 20 -2 -7
COMMENT "Generated by fontforge, http://fontforge.sourceforge.net"
COMMENT "Copyright (c) 2012, Brownfox (gayaneh.b@gmail.com), with Reserved Font Name "Henny Penny""
STARTPROPERTIES 39
FOUNDRY "FontForge"
FAMILY_NAME "Henny Penny"
WEIGHT_NAME "Book"
SLANT "R"
SETWIDTH_NAME "Normal"
ADD_STYLE_NAME ""
PIXEL_SIZE 11
POINT_SIZE 110
RESOLUTION_X 72
RESOLUTION_Y 72
SPACING "P"
AVERAGE_WIDTH 63
CHARSET_REGISTRY "ISO10646"
CHARSET_ENCODING "1"
FONTNAME_REGISTRY ""
CHARSET_COLLECTIONS "ISO10646-1"
FONT_NAME "HennyPenny-Regular"
FACE_NAME "Henny Penny"
COPYRIGHT "Copyright (c) 2012, Brownfox (gayaneh.b@gmail.com), with Reserved Font Name "Henny Penny""
FONT_VERSION "1.001"
FONT_ASCENT 9
FONT_DESCENT 2
UNDERLINE_POSITION -1
UNDERLINE_THICKNESS 1
X_HEIGHT 6
CAP_HEIGHT 8
RAW_ASCENT 799
RAW_DESCENT 200
NORM_SPACE 3
RELATIVE_WEIGHT 40
RELATIVE_SETWIDTH 50
SUPERSCRIPT_X 0
SUPERSCRIPT_Y 3
SUPERSCRIPT_SIZE 6
SUBSCRIPT_X 0
SUBSCRIPT_Y 0
SUBSCRIPT_SIZE 6
AVG_LOWERCASE_WIDTH 55
AVG_UPPERCASE_WIDTH 79
ENDPROPERTIES
CHARS 233
STARTCHAR space
ENCODING 32
SWIDTH 270 0
DWIDTH 3 0
BBX 1 1 0 0
BITMAP
00
ENDCHAR
STARTCHAR exclam
ENCODING 33
SWIDTH 249 0
DWIDTH 3 0
BBX 2 10 1 0
BITMAP
80
C0
C0
80
80
80
80
80
00
80
ENDCHAR
STARTCHAR quotedbl
ENCODING 34
SWIDTH 292 0
DWIDTH 3 0
BBX 2 4 1 5
BITMAP
C0
C0
C0
C0
ENDCHAR
STARTCHAR numbersign
ENCODING 35
SWIDTH 1030 0
DWIDTH 11 0
BBX 10 12 1 -3
BITMAP
0800
0A00
0A00
F400
1FC0
2800
3F00
F000
5000
6000
2000
2000
ENDCHAR
STARTCHAR dollar
ENCODING 36
SWIDTH 799 0
DWIDTH 9 0
BBX 7 12 1 -2
BITMAP
0A
3C
34
34
30
18
1C
A4
A4
E4
B8
20
ENDCHAR
STARTCHAR percent
ENCODING 37
SWIDTH 789 0
DWIDTH 9 0
BBX 8 10 1 0
BITMAP
62
94
98
68
10
20
46
49
89
8E
ENDCHAR
STARTCHAR ampersand
ENCODING 38
SWIDTH 773 0
DWIDTH 9 0
BBX 8 11 0 -1
BITMAP
30
50
50
60
42
EE
A2
94
CC
7D
06
ENDCHAR
STARTCHAR quotesingle
ENCODING 39
SWIDTH 174 0
DWIDTH 2 0
BBX 1 3 1 6
BITMAP
80
80
80
ENDCHAR
STARTCHAR parenleft
ENCODING 40
SWIDTH 431 0
DWIDTH 5 0
BBX 5 16 0 -5
BITMAP
60
40
40
80
80
80
80
80
80
80
40
40
20
20
10
08
ENDCHAR
STARTCHAR parenright
ENCODING 41
SWIDTH 443 0
DWIDTH 5 0
BBX 5 10 0 -2
BITMAP
60
10
10
08
08
08
08
10
10
E0
ENDCHAR
STARTCHAR asterisk
ENCODING 42
SWIDTH 490 0
DWIDTH 5 0
BBX 4 5 1 5
BITMAP
40
50
E0
60
90
ENDCHAR
STARTCHAR plus
ENCODING 43
SWIDTH 440 0
DWIDTH 5 0
BBX 4 7 1 0
BITMAP
20
20
20
F0
20
20
20
ENDCHAR
STARTCHAR comma
ENCODING 44
SWIDTH 251 0
DWIDTH 3 0
BBX 2 4 0 -2
BITMAP
C0
C0
40
80
ENDCHAR
STARTCHAR hyphen
ENCODING 45
SWIDTH 436 0
DWIDTH 5 0
BBX 3 1 1 2
BITMAP
E0
ENDCHAR
STARTCHAR period
ENCODING 46
SWIDTH 238 0
DWIDTH 3 0
BBX 2 2 1 0
BITMAP
C0
C0
ENDCHAR
STARTCHAR slash
ENCODING 47
SWIDTH 690 0
DWIDTH 8 0
BBX 8 10 0 0
BITMAP
03
02
04
08
10
10
20
40
40
80
ENDCHAR
STARTCHAR zero
ENCODING 48
SWIDTH 723 0
DWIDTH 8 0
BBX 7 8 0 1
BITMAP
38
46
82
82
82
C2
46
3C
ENDCHAR
STARTCHAR one
ENCODING 49
SWIDTH 505 0
DWIDTH 6 0
BBX 6 10 0 -1
BITMAP
20
20
70
B0
10
10
10
18
1C
60
ENDCHAR
STARTCHAR two
ENCODING 50
SWIDTH 534 0
DWIDTH 6 0
BBX 6 10 0 -1
BITMAP
38
C8
88
88
10
20
40
64
3C
08
ENDCHAR
STARTCHAR three
ENCODING 51
SWIDTH 511 0
DWIDTH 6 0
BBX 5 9 0 -1
BITMAP
F0
90
20
20
18
88
88
88
70
ENDCHAR
STARTCHAR four
ENCODING 52
SWIDTH 712 0
DWIDTH 8 0
BBX 8 11 0 -2
BITMAP
08
08
38
48
88
48
3E
0E
04
0E
01
ENDCHAR
STARTCHAR five
ENCODING 53
SWIDTH 757 0
DWIDTH 8 0
BBX 8 10 0 -1
BITMAP
09
16
22
30
0C
84
84
84
8C
78
ENDCHAR
STARTCHAR six
ENCODING 54
SWIDTH 598 0
DWIDTH 7 0
BBX 6 9 0 0
BITMAP
38
44
C0
F8
CC
84
C4
44
38
ENDCHAR
STARTCHAR seven
ENCODING 55
SWIDTH 507 0
DWIDTH 6 0
BBX 6 8 0 0
BITMAP
FC
90
90
10
20
20
20
60
ENDCHAR
STARTCHAR eight
ENCODING 56
SWIDTH 476 0
DWIDTH 5 0
BBX 5 9 0 0
BITMAP
70
D0
D0
E0
70
88
88
88
F0
ENDCHAR
STARTCHAR nine
ENCODING 57
SWIDTH 601 0
DWIDTH 7 0
BBX 7 8 0 0
BITMAP
78
CC
84
86
C6
7C
04
F8
ENDCHAR
STARTCHAR colon
ENCODING 58
SWIDTH 246 0
DWIDTH 3 0
BBX 2 5 1 0
BITMAP
C0
C0
00
80
80
ENDCHAR
STARTCHAR semicolon
ENCODING 59
SWIDTH 266 0
DWIDTH 3 0
BBX 2 7 1 -2
BITMAP
C0
C0
00
00
C0
40
80
ENDCHAR
STARTCHAR less
ENCODING 60
SWIDTH 522 0
DWIDTH 6 0
BBX 4 5 1 1
BITMAP
10
60
80
40
30
ENDCHAR
STARTCHAR equal
ENCODING 61
SWIDTH 655 0
DWIDTH 7 0
BBX 6 3 1 2
BITMAP
3C
C0
F8
ENDCHAR
STARTCHAR greater
ENCODING 62
SWIDTH 533 0
DWIDTH 6 0
BBX 4 5 1 1
BITMAP
80
40
30
20
C0
ENDCHAR
STARTCHAR question
ENCODING 63
SWIDTH 564 0
DWIDTH 6 0
BBX 5 10 0 -1
BITMAP
78
88
88
C8
D0
60
80
40
00
40
ENDCHAR
STARTCHAR at
ENCODING 64
SWIDTH 898 0
DWIDTH 10 0
BBX 9 11 1 -3
BITMAP
1E00
2100
5E80
B280
A280
A280
B280
9F00
4400
2200
1C00
ENDCHAR
STARTCHAR A
ENCODING 65
SWIDTH 784 0
DWIDTH 9 0
BBX 9 10 0 -1
BITMAP
3800
1800
1C00
2400
2400
3E00
2600
4200
C300
2780
ENDCHAR
STARTCHAR B
ENCODING 66
SWIDTH 685 0
DWIDTH 8 0
BBX 8 11 0 -2
BITMAP
FC
26
24
28
3E
22
23
22
22
3C
C0
ENDCHAR
STARTCHAR C
ENCODING 67
SWIDTH 742 0
DWIDTH 8 0
BBX 8 11 0 -1
BITMAP
02
02
3E
62
C1
C0
C0
C1
C1
62
3C
ENDCHAR
STARTCHAR D
ENCODING 68
SWIDTH 726 0
DWIDTH 8 0
BBX 8 9 0 -2
BITMAP
7E
23
21
21
23
22
3C
60
80
ENDCHAR
STARTCHAR E
ENCODING 69
SWIDTH 557 0
DWIDTH 6 0
BBX 6 10 0 -1
BITMAP
98
E8
40
50
70
50
40
44
44
FC
ENDCHAR
STARTCHAR F
ENCODING 70
SWIDTH 533 0
DWIDTH 6 0
BBX 6 10 0 0
BITMAP
0C
F4
64
20
30
30
30
30
20
F0
ENDCHAR
STARTCHAR G
ENCODING 71
SWIDTH 750 0
DWIDTH 8 0
BBX 8 8 0 0
BITMAP
01
39
66
C2
C1
CE
C2
7E
ENDCHAR
STARTCHAR H
ENCODING 72
SWIDTH 743 0
DWIDTH 8 0
BBX 9 12 0 -2
BITMAP
8000
7880
2700
2300
2300
2300
3F00
2300
2100
2100
2700
F080
ENDCHAR
STARTCHAR I
ENCODING 73
SWIDTH 438 0
DWIDTH 5 0
BBX 6 12 0 -2
BITMAP
FC
30
20
20
20
20
20
20
20
20
70
80
ENDCHAR
STARTCHAR J
ENCODING 74
SWIDTH 628 0
DWIDTH 7 0
BBX 7 13 0 -3
BITMAP
02
3C
08
08
08
08
08
08
08
08
D0
D0
E0
ENDCHAR
STARTCHAR K
ENCODING 75
SWIDTH 866 0
DWIDTH 10 0
BBX 10 10 0 0
BITMAP
1800
F700
2400
2800
2800
3800
2C40
2640
23C0
7000
ENDCHAR
STARTCHAR L
ENCODING 76
SWIDTH 660 0
DWIDTH 7 0
BBX 7 7 0 1
BITMAP
F8
30
20
20
24
22
7E
ENDCHAR
STARTCHAR M
ENCODING 77
SWIDTH 1089 0
DWIDTH 12 0
BBX 12 9 0 -1
BITMAP
0060
30C0
28C0
2D40
2640
2640
2060
A070
C080
ENDCHAR
STARTCHAR N
ENCODING 78
SWIDTH 799 0
DWIDTH 9 0
BBX 9 9 0 -2
BITMAP
F380
3100
5A00
4E00
4600
4200
4200
4000
F000
ENDCHAR
STARTCHAR O
ENCODING 79
SWIDTH 747 0
DWIDTH 8 0
BBX 8 8 0 0
BITMAP
3C
46
C3
83
81
C3
62
3C
ENDCHAR
STARTCHAR P
ENCODING 80
SWIDTH 623 0
DWIDTH 7 0
BBX 7 9 0 -1
BITMAP
FC
26
26
24
3C
20
20
20
F8
ENDCHAR
STARTCHAR Q
ENCODING 81
SWIDTH 804 0
DWIDTH 9 0
BBX 12 13 0 -5
BITMAP
3C00
4600
C300
8100
8100
8D00
CB00
7300
3D00
0100
0190
0190
00E0
ENDCHAR
STARTCHAR R
ENCODING 82
SWIDTH 869 0
DWIDTH 10 0
BBX 10 8 0 0
BITMAP
FC00
6600
2600
3C00
2800
2C40
2640
F380
ENDCHAR
STARTCHAR S
ENCODING 83
SWIDTH 517 0
DWIDTH 6 0
BBX 5 11 0 -1
BITMAP
08
38
48
48
20
30
18
88
88
88
F8
ENDCHAR
STARTCHAR T
ENCODING 84
SWIDTH 659 0
DWIDTH 7 0
BBX 7 11 1 -1
BITMAP
FE
92
92
90
10
10
10
10
18
3C
40
ENDCHAR
STARTCHAR U
ENCODING 85
SWIDTH 690 0
DWIDTH 8 0
BBX 8 8 0 0
BITMAP
30
EF
64
64
64
64
64
38
ENDCHAR
STARTCHAR V
ENCODING 86
SWIDTH 798 0
DWIDTH 9 0
BBX 10 9 0 0
BITMAP
0800
F040
30C0
1300
1900
0A00
0E00
0400
0400
ENDCHAR
STARTCHAR W
ENCODING 87
SWIDTH 1120 0
DWIDTH 12 0
BBX 14 10 0 -1
BITMAP
0040
003C
2010
6020
E220
2E40
3B40
1180
1180
0100
ENDCHAR
STARTCHAR X
ENCODING 88
SWIDTH 868 0
DWIDTH 10 0
BBX 10 10 0 -1
BITMAP
0800
FA00
3980
0A00
0E00
0E00
1200
2100
F780
1040
ENDCHAR
STARTCHAR Y
ENCODING 89
SWIDTH 796 0
DWIDTH 9 0
BBX 9 11 0 -1
BITMAP
1000
E380
6200
3400
1C00
0800
0800
0800
0800
0800
3C00
ENDCHAR
STARTCHAR Z
ENCODING 90
SWIDTH 627 0
DWIDTH 7 0
BBX 6 10 1 -2
BITMAP
80
F0
B0
A0
20
48
44
44
FC
C0
ENDCHAR
STARTCHAR bracketleft
ENCODING 91
SWIDTH 344 0
DWIDTH 4 0
BBX 4 11 0 -2
BITMAP
60
50
40
80
80
80
80
80
80
80
E0
ENDCHAR
STARTCHAR backslash
ENCODING 92
SWIDTH 347 0
DWIDTH 4 0
BBX 4 11 0 -1
BITMAP
80
80
80
40
40
40
40
20
20
20
10
ENDCHAR
STARTCHAR bracketright
ENCODING 93
SWIDTH 334 0
DWIDTH 4 0
BBX 3 10 0 -3
BITMAP
60
20
20
20
20
20
20
20
20
C0
ENDCHAR
STARTCHAR asciicircum
ENCODING 94
SWIDTH 658 0
DWIDTH 7 0
BBX 6 3 1 6
BITMAP
20
70
8C
ENDCHAR
STARTCHAR underscore
ENCODING 95
SWIDTH 678 0
DWIDTH 7 0
BBX 6 1 1 -3
BITMAP
FC
ENDCHAR
STARTCHAR grave
ENCODING 96
SWIDTH 278 0
DWIDTH 3 0
BBX 2 2 1 8
BITMAP
80
40
ENDCHAR
STARTCHAR a
ENCODING 97
SWIDTH 527 0
DWIDTH 6 0
BBX 6 8 0 -1
BITMAP
60
90
50
10
78
98
EC
0C
ENDCHAR
STARTCHAR b
ENCODING 98
SWIDTH 582 0
DWIDTH 6 0
BBX 7 13 -1 -1
BITMAP
20
E0
20
20
20
20
20
2C
32
22
22
3C
40
ENDCHAR
STARTCHAR c
ENCODING 99
SWIDTH 437 0
DWIDTH 5 0
BBX 4 6 0 1
BITMAP
70
90
80
90
90
70
ENDCHAR
STARTCHAR d
ENCODING 100
SWIDTH 523 0
DWIDTH 6 0
BBX 6 10 0 1
BITMAP
08
18
08
08
08
08
78
C8
C8
7C
ENDCHAR
STARTCHAR e
ENCODING 101
SWIDTH 434 0
DWIDTH 5 0
BBX 4 6 0 0
BITMAP
70
90
F0
90
D0
70
ENDCHAR
STARTCHAR f
ENCODING 102
SWIDTH 299 0
DWIDTH 3 0
BBX 6 15 -1 -2
BITMAP
1C
24
24
2C
20
F8
20
20
20
20
20
20
20
78
80
ENDCHAR
STARTCHAR g
ENCODING 103
SWIDTH 567 0
DWIDTH 6 0
BBX 7 11 -1 -4
BITMAP
06
3A
6C
4C
38
40
38
44
46
C4
78
ENDCHAR
STARTCHAR h
ENCODING 104
SWIDTH 566 0
DWIDTH 6 0
BBX 6 11 0 0
BITMAP
20
E0
40
40
40
40
58
68
48
48
FC
ENDCHAR
STARTCHAR i
ENCODING 105
SWIDTH 301 0
DWIDTH 3 0
BBX 3 7 0 1
BITMAP
40
C0
40
40
40
40
E0
ENDCHAR
STARTCHAR j
ENCODING 106
SWIDTH 367 0
DWIDTH 4 0
BBX 5 12 -1 -6
BITMAP
10
00
78
18
08
08
08
08
C8
88
90
60
ENDCHAR
STARTCHAR k
ENCODING 107
SWIDTH 567 0
DWIDTH 6 0
BBX 7 12 -1 -1
BITMAP
20
E0
20
20
30
2C
28
30
32
2A
2E
F8
ENDCHAR
STARTCHAR l
ENCODING 108
SWIDTH 354 0
DWIDTH 4 0
BBX 4 10 0 0
BITMAP
20
60
E0
60
20
20
20
20
20
70
ENDCHAR
STARTCHAR m
ENCODING 109
SWIDTH 708 0
DWIDTH 8 0
BBX 7 6 0 1
BITMAP
40
FC
52
5A
E6
22
ENDCHAR
STARTCHAR n
ENCODING 110
SWIDTH 584 0
DWIDTH 6 0
BBX 7 8 0 -1
BITMAP
40
4C
F4
24
24
24
7C
06
ENDCHAR
STARTCHAR o
ENCODING 111
SWIDTH 503 0
DWIDTH 6 0
BBX 5 5 0 1
BITMAP
70
C8
88
C8
70
ENDCHAR
STARTCHAR p
ENCODING 112
SWIDTH 509 0
DWIDTH 6 0
BBX 5 11 0 -5
BITMAP
40
F8
48
48
48
70
40
40
40
40
E0
ENDCHAR
STARTCHAR q
ENCODING 113
SWIDTH 505 0
DWIDTH 6 0
BBX 5 11 0 -5
BITMAP
F8
90
90
F0
10
10
10
10
10
70
08
ENDCHAR
STARTCHAR r
ENCODING 114
SWIDTH 414 0
DWIDTH 5 0
BBX 5 8 0 0
BITMAP
18
F8
40
40
40
40
40
E0
ENDCHAR
STARTCHAR s
ENCODING 115
SWIDTH 482 0
DWIDTH 5 0
BBX 5 8 0 -1
BITMAP
38
50
30
10
48
88
C8
38
ENDCHAR
STARTCHAR t
ENCODING 116
SWIDTH 434 0
DWIDTH 5 0
BBX 5 9 0 0
BITMAP
20
20
F0
60
40
40
40
68
30
ENDCHAR
STARTCHAR u
ENCODING 117
SWIDTH 744 0
DWIDTH 8 0
BBX 8 6 1 0
BITMAP
5C
C4
44
44
6F
30
ENDCHAR
STARTCHAR v
ENCODING 118
SWIDTH 600 0
DWIDTH 7 0
BBX 7 7 0 0
BITMAP
20
E0
2E
28
18
18
10
ENDCHAR
STARTCHAR w
ENCODING 119
SWIDTH 745 0
DWIDTH 8 0
BBX 8 6 0 0
BITMAP
63
EA
6E
36
24
20
ENDCHAR
STARTCHAR x
ENCODING 120
SWIDTH 548 0
DWIDTH 6 0
BBX 6 6 0 1
BITMAP
10
EC
30
30
30
5C
ENDCHAR
STARTCHAR y
ENCODING 121
SWIDTH 659 0
DWIDTH 7 0
BBX 7 11 0 -5
BITMAP
20
CE
44
44
64
3C
04
04
68
A8
70
ENDCHAR
STARTCHAR z
ENCODING 122
SWIDTH 460 0
DWIDTH 5 0
BBX 5 5 0 0
BITMAP
F0
90
A0
48
F8
ENDCHAR
STARTCHAR braceleft
ENCODING 123
SWIDTH 460 0
DWIDTH 5 0
BBX 5 14 0 -3
BITMAP
38
20
20
20
20
20
E0
40
20
20
20
20
28
38
ENDCHAR
STARTCHAR bar
ENCODING 124
SWIDTH 368 0
DWIDTH 4 0
BBX 1 12 2 -2
BITMAP
80
80
80
80
80
80
80
80
80
80
80
80
ENDCHAR
STARTCHAR braceright
ENCODING 125
SWIDTH 476 0
DWIDTH 5 0
BBX 5 12 0 -3
BITMAP
60
B0
30
30
10
18
10
08
08
08
08
30
ENDCHAR
STARTCHAR asciitilde
ENCODING 126
SWIDTH 733 0
DWIDTH 8 0
BBX 7 2 1 2
BITMAP
E6
9C
ENDCHAR
STARTCHAR nonbreakingspace
ENCODING 160
SWIDTH 270 0
DWIDTH 3 0
BBX 1 1 0 0
BITMAP
00
ENDCHAR
STARTCHAR exclamdown
ENCODING 161
SWIDTH 247 0
DWIDTH 3 0
BBX 2 11 1 -1
BITMAP
80
00
80
80
80
80
80
C0
C0
C0
80
ENDCHAR
STARTCHAR cent
ENCODING 162
SWIDTH 799 0
DWIDTH 9 0
BBX 5 9 2 -2
BITMAP
40
70
C8
A8
A0
E8
70
10
10
ENDCHAR
STARTCHAR sterling
ENCODING 163
SWIDTH 799 0
DWIDTH 9 0
BBX 6 10 2 -1
BITMAP
70
48
D8
C0
40
F0
20
20
E4
D8
ENDCHAR
STARTCHAR currency
ENCODING 164
SWIDTH 732 0
DWIDTH 8 0
BBX 6 8 1 0
BITMAP
10
F0
88
88
88
78
84
80
ENDCHAR
STARTCHAR yen
ENCODING 165
SWIDTH 799 0
DWIDTH 9 0
BBX 8 12 0 -2
BITMAP
10
E1
36
14
1C
08
3F
0E
08
08
1E
20
ENDCHAR
STARTCHAR brokenbar
ENCODING 166
SWIDTH 341 0
DWIDTH 4 0
BBX 1 13 2 -3
BITMAP
80
80
80
80
80
00
80
80
80
80
80
80
80
ENDCHAR
STARTCHAR section
ENCODING 167
SWIDTH 546 0
DWIDTH 6 0
BBX 5 12 1 -3
BITMAP
70
48
58
60
B0
88
C8
70
10
08
68
70
ENDCHAR
STARTCHAR dieresis
ENCODING 168
SWIDTH 393 0
DWIDTH 4 0
BBX 3 1 1 7
BITMAP
A0
ENDCHAR
STARTCHAR copyright
ENCODING 169
SWIDTH 1023 0
DWIDTH 11 0
BBX 10 10 1 -2
BITMAP
1E00
6980
58C0
A440
A440
A440
9840
C080
6180
3E00
ENDCHAR
STARTCHAR ordfeminine
ENCODING 170
SWIDTH 558 0
DWIDTH 6 0
BBX 5 6 1 3
BITMAP
E0
A0
20
60
A8
D8
ENDCHAR
STARTCHAR guillemotleft
ENCODING 171
SWIDTH 608 0
DWIDTH 7 0
BBX 5 10 1 -3
BITMAP
08
28
28
50
D0
D8
48
28
28
10
ENDCHAR
STARTCHAR logicalnot
ENCODING 172
SWIDTH 616 0
DWIDTH 7 0
BBX 6 3 0 2
BITMAP
FC
04
04
ENDCHAR
STARTCHAR uni00AD
ENCODING 173
SWIDTH 436 0
DWIDTH 5 0
BBX 3 1 1 2
BITMAP
E0
ENDCHAR
STARTCHAR registered
ENCODING 174
SWIDTH 1048 0
DWIDTH 12 0
BBX 10 10 1 -2
BITMAP
1E00
7D80
56C0
9640
9C40
9540
BF40
4080
6180
1E00
ENDCHAR
STARTCHAR macron
ENCODING 175
SWIDTH 382 0
DWIDTH 4 0
BBX 3 1 1 9
BITMAP
E0
ENDCHAR
STARTCHAR degree
ENCODING 176
SWIDTH 346 0
DWIDTH 4 0
BBX 3 3 1 8
BITMAP
C0
E0
C0
ENDCHAR
STARTCHAR plusminus
ENCODING 177
SWIDTH 580 0
DWIDTH 6 0
BBX 6 5 0 2
BITMAP
10
10
7C
10
F8
ENDCHAR
STARTCHAR twosuperior
ENCODING 178
SWIDTH 365 0
DWIDTH 4 0
BBX 3 6 1 4
BITMAP
60
A0
20
40
A0
40
ENDCHAR
STARTCHAR threesuperior
ENCODING 179
SWIDTH 371 0
DWIDTH 4 0
BBX 4 5 0 4
BITMAP
60
C0
B0
90
60
ENDCHAR
STARTCHAR acute
ENCODING 180
SWIDTH 234 0
DWIDTH 3 0
BBX 1 2 1 8
BITMAP
80
80
ENDCHAR
STARTCHAR mu
ENCODING 181
SWIDTH 634 0
DWIDTH 7 0
BBX 6 9 1 -4
BITMAP
90
88
8C
DC
EC
80
80
80
C0
ENDCHAR
STARTCHAR paragraph
ENCODING 182
SWIDTH 707 0
DWIDTH 8 0
BBX 8 13 0 -4
BITMAP
02
7C
E4
E4
E4
24
24
24
24
24
27
20
C0
ENDCHAR
STARTCHAR periodcentered
ENCODING 183
SWIDTH 238 0
DWIDTH 3 0
BBX 2 2 1 4
BITMAP
C0
C0
ENDCHAR
STARTCHAR cedilla
ENCODING 184
SWIDTH 332 0
DWIDTH 4 0
BBX 3 4 0 -3
BITMAP
40
60
20
E0
ENDCHAR
STARTCHAR onesuperior
ENCODING 185
SWIDTH 336 0
DWIDTH 4 0
BBX 4 5 0 5
BITMAP
20
E0
20
20
F0
ENDCHAR
STARTCHAR ordmasculine
ENCODING 186
SWIDTH 503 0
DWIDTH 6 0
BBX 5 5 0 3
BITMAP
70
98
88
88
70
ENDCHAR
STARTCHAR guillemotright
ENCODING 187
SWIDTH 778 0
DWIDTH 9 0
BBX 7 10 1 -3
BITMAP
20
90
88
64
36
28
50
90
A0
20
ENDCHAR
STARTCHAR onequarter
ENCODING 188
SWIDTH 876 0
DWIDTH 10 0
BBX 9 10 0 0
BITMAP
2100
E200
2200
2400
FA00
1200
1F00
2700
4B00
8380
ENDCHAR
STARTCHAR onehalf
ENCODING 189
SWIDTH 762 0
DWIDTH 8 0
BBX 8 10 0 0
BITMAP
21
E2
22
24
FB
15
11
22
45
83
ENDCHAR
STARTCHAR threequarters
ENCODING 190
SWIDTH 922 0
DWIDTH 10 0
BBX 10 10 0 0
BITMAP
0080
6100
C200
B400
9600
6B00
1580
1780
2100
43C0
ENDCHAR
STARTCHAR questiondown
ENCODING 191
SWIDTH 571 0
DWIDTH 6 0
BBX 6 11 0 -2
BITMAP
30
30
00
20
20
20
5C
CC
C4
C4
78
ENDCHAR
STARTCHAR Agrave
ENCODING 192
SWIDTH 784 0
DWIDTH 9 0
BBX 9 12 0 -1
BITMAP
2000
1000
3800
1800
1C00
2400
2400
3E00
2600
4200
C300
2780
ENDCHAR
STARTCHAR Aacute
ENCODING 193
SWIDTH 784 0
DWIDTH 9 0
BBX 9 12 0 -1
BITMAP
0800
1000
3800
1800
1C00
2400
2400
3E00
2600
4200
C300
2780
ENDCHAR
STARTCHAR Acircumflex
ENCODING 194
SWIDTH 784 0
DWIDTH 9 0
BBX 9 12 0 -1
BITMAP
0800
3400
3800
1800
1C00
2400
2400
3E00
2600
4200
C300
2780
ENDCHAR
STARTCHAR Atilde
ENCODING 195
SWIDTH 784 0
DWIDTH 9 0
BBX 9 13 0 -1
BITMAP
3000
0C00
0000
3800
1800
1C00
2400
2400
3E00
2600
4200
C300
2780
ENDCHAR
STARTCHAR Adieresis
ENCODING 196
SWIDTH 784 0
DWIDTH 9 0
BBX 9 12 0 -1
BITMAP
1000
1400
3800
1800
1C00
2400
2400
3E00
2600
4200
C300
2780
ENDCHAR
STARTCHAR Aring
ENCODING 197
SWIDTH 784 0
DWIDTH 9 0
BBX 9 13 0 -1
BITMAP
0C00
1400
0C00
3800
1800
1C00
2400
2400
3E00
2600
4200
C300
2780
ENDCHAR
STARTCHAR AE
ENCODING 198
SWIDTH 1172 0
DWIDTH 13 0
BBX 13 11 0 -2
BITMAP
00E0
0FA0
0520
0540
0940
09C0
0F48
1188
1198
21E0
F200
ENDCHAR
STARTCHAR Ccedilla
ENCODING 199
SWIDTH 742 0
DWIDTH 8 0
BBX 8 15 0 -5
BITMAP
02
02
3E
62
C1
C0
C0
C1
C1
62
3C
08
0C
04
18
ENDCHAR
STARTCHAR Egrave
ENCODING 200
SWIDTH 557 0
DWIDTH 6 0
BBX 6 12 0 -1
BITMAP
40
20
98
E8
40
50
70
50
40
44
44
FC
ENDCHAR
STARTCHAR Eacute
ENCODING 201
SWIDTH 557 0
DWIDTH 6 0
BBX 6 12 0 -1
BITMAP
10
10
98
E8
40
50
70
50
40
44
44
FC
ENDCHAR
STARTCHAR Ecircumflex
ENCODING 202
SWIDTH 557 0
DWIDTH 6 0
BBX 6 12 0 -1
BITMAP
10
68
98
E8
40
50
70
50
40
44
44
FC
ENDCHAR
STARTCHAR Edieresis
ENCODING 203
SWIDTH 557 0
DWIDTH 6 0
BBX 6 12 0 -1
BITMAP
20
28
98
E8
40
50
70
50
40
44
44
FC
ENDCHAR
STARTCHAR Igrave
ENCODING 204
SWIDTH 438 0
DWIDTH 5 0
BBX 6 14 0 -2
BITMAP
60
20
FC
30
20
20
20
20
20
20
20
20
70
80
ENDCHAR
STARTCHAR Iacute
ENCODING 205
SWIDTH 438 0
DWIDTH 5 0
BBX 6 13 0 -2
BITMAP
10
FC
30
20
20
20
20
20
20
20
20
70
80
ENDCHAR
STARTCHAR Icircumflex
ENCODING 206
SWIDTH 438 0
DWIDTH 5 0
BBX 6 14 0 -2
BITMAP
30
58
FC
30
20
20
20
20
20
20
20
20
70
80
ENDCHAR
STARTCHAR Idieresis
ENCODING 207
SWIDTH 438 0
DWIDTH 5 0
BBX 6 14 0 -2
BITMAP
40
50
FC
30
20
20
20
20
20
20
20
20
70
80
ENDCHAR
STARTCHAR Eth
ENCODING 208
SWIDTH 730 0
DWIDTH 8 0
BBX 8 9 0 -2
BITMAP
7E
27
23
23
73
A3
26
7C
C0
ENDCHAR
STARTCHAR Ntilde
ENCODING 209
SWIDTH 799 0
DWIDTH 9 0
BBX 9 13 0 -2
BITMAP
0800
1600
0000
0000
F380
3100
5A00
4E00
4600
4200
4200
4000
F000
ENDCHAR
STARTCHAR Ograve
ENCODING 210
SWIDTH 747 0
DWIDTH 8 0
BBX 8 11 0 0
BITMAP
20
10
00
3C
46
C3
83
81
C3
62
3C
ENDCHAR
STARTCHAR Oacute
ENCODING 211
SWIDTH 747 0
DWIDTH 8 0
BBX 8 11 0 0
BITMAP
08
10
00
3C
46
C3
83
81
C3
62
3C
ENDCHAR
STARTCHAR Ocircumflex
ENCODING 212
SWIDTH 747 0
DWIDTH 8 0
BBX 8 11 0 0
BITMAP
18
2C
00
3C
46
C3
83
81
C3
62
3C
ENDCHAR
STARTCHAR Otilde
ENCODING 213
SWIDTH 747 0
DWIDTH 8 0
BBX 8 11 0 0
BITMAP
30
0C
00
3C
46
C3
83
81
C3
62
3C
ENDCHAR
STARTCHAR Odieresis
ENCODING 214
SWIDTH 747 0
DWIDTH 8 0
BBX 8 11 0 0
BITMAP
10
14
00
3C
46
C3
83
81
C3
62
3C
ENDCHAR
STARTCHAR multiply
ENCODING 215
SWIDTH 541 0
DWIDTH 6 0
BBX 4 6 1 0
BITMAP
10
A0
40
B0
80
80
ENDCHAR
STARTCHAR Oslash
ENCODING 216
SWIDTH 747 0
DWIDTH 8 0
BBX 9 10 0 -1
BITMAP
0100
3E00
4300
C500
8980
9180
E100
6300
7E00
8000
ENDCHAR
STARTCHAR Ugrave
ENCODING 217
SWIDTH 690 0
DWIDTH 8 0
BBX 8 11 0 0
BITMAP
18
08
00
30
EF
64
64
64
64
64
38
ENDCHAR
STARTCHAR Uacute
ENCODING 218
SWIDTH 690 0
DWIDTH 8 0
BBX 8 10 0 0
BITMAP
02
04
30
EF
64
64
64
64
64
38
ENDCHAR
STARTCHAR Ucircumflex
ENCODING 219
SWIDTH 690 0
DWIDTH 8 0
BBX 8 11 0 0
BITMAP
08
16
00
30
EF
64
64
64
64
64
38
ENDCHAR
STARTCHAR Udieresis
ENCODING 220
SWIDTH 690 0
DWIDTH 8 0
BBX 8 11 0 0
BITMAP
10
14
00
30
EF
64
64
64
64
64
38
ENDCHAR
STARTCHAR Yacute
ENCODING 221
SWIDTH 796 0
DWIDTH 9 0
BBX 9 12 0 -1
BITMAP
0200
1400
E380
6200
3400
1C00
0800
0800
0800
0800
0800
3C00
ENDCHAR
STARTCHAR Thorn
ENCODING 222
SWIDTH 479 0
DWIDTH 5 0
BBX 5 11 0 -1
BITMAP
E0
40
78
48
48
78
40
40
40
40
E0
ENDCHAR
STARTCHAR germandbls
ENCODING 223
SWIDTH 591 0
DWIDTH 7 0
BBX 6 12 0 -1
BITMAP
60
90
90
90
A0
B8
CC
44
44
54
7C
80
ENDCHAR
STARTCHAR agrave
ENCODING 224
SWIDTH 527 0
DWIDTH 6 0
BBX 6 10 0 -1
BITMAP
40
20
60
90
50
10
78
98
EC
0C
ENDCHAR
STARTCHAR aacute
ENCODING 225
SWIDTH 527 0
DWIDTH 6 0
BBX 6 10 0 -1
BITMAP
10
20
60
90
50
10
78
98
EC
0C
ENDCHAR
STARTCHAR acircumflex
ENCODING 226
SWIDTH 527 0
DWIDTH 6 0
BBX 6 10 0 -1
BITMAP
20
58
60
90
50
10
78
98
EC
0C
ENDCHAR
STARTCHAR atilde
ENCODING 227
SWIDTH 527 0
DWIDTH 6 0
BBX 6 10 0 -1
BITMAP
60
18
60
90
50
10
78
98
EC
0C
ENDCHAR
STARTCHAR adieresis
ENCODING 228
SWIDTH 527 0
DWIDTH 6 0
BBX 6 9 0 -1
BITMAP
50
60
90
50
10
78
98
EC
0C
ENDCHAR
STARTCHAR aring
ENCODING 229
SWIDTH 527 0
DWIDTH 6 0
BBX 6 11 0 -1
BITMAP
38
48
30
60
90
50
10
78
98
EC
0C
ENDCHAR
STARTCHAR ae
ENCODING 230
SWIDTH 700 0
DWIDTH 8 0
BBX 7 8 0 -1
BITMAP
0E
F2
A2
3C
60
92
BA
CE
ENDCHAR
STARTCHAR ccedilla
ENCODING 231
SWIDTH 437 0
DWIDTH 5 0
BBX 4 9 0 -2
BITMAP
70
90
80
90
90
70
40
B0
70
ENDCHAR
STARTCHAR egrave
ENCODING 232
SWIDTH 434 0
DWIDTH 5 0
BBX 4 9 0 0
BITMAP
40
20
00
70
90
F0
90
D0
70
ENDCHAR
STARTCHAR eacute
ENCODING 233
SWIDTH 434 0
DWIDTH 5 0
BBX 4 9 0 0
BITMAP
10
20
00
70
90
F0
90
D0
70
ENDCHAR
STARTCHAR ecircumflex
ENCODING 234
SWIDTH 434 0
DWIDTH 5 0
BBX 5 9 0 0
BITMAP
20
58
80
70
90
F0
90
D0
70
ENDCHAR
STARTCHAR edieresis
ENCODING 235
SWIDTH 434 0
DWIDTH 5 0
BBX 4 8 0 0
BITMAP
50
00
70
90
F0
90
D0
70
ENDCHAR
STARTCHAR igrave
ENCODING 236
SWIDTH 301 0
DWIDTH 3 0
BBX 3 8 0 1
BITMAP
80
40
C0
40
40
40
40
E0
ENDCHAR
STARTCHAR iacute
ENCODING 237
SWIDTH 301 0
DWIDTH 3 0
BBX 3 8 0 1
BITMAP
20
40
C0
40
40
40
40
E0
ENDCHAR
STARTCHAR icircumflex
ENCODING 238
SWIDTH 301 0
DWIDTH 3 0
BBX 4 8 0 1
BITMAP
40
B0
C0
40
40
40
40
E0
ENDCHAR
STARTCHAR idieresis
ENCODING 239
SWIDTH 301 0
DWIDTH 3 0
BBX 3 7 0 1
BITMAP
A0
C0
40
40
40
40
E0
ENDCHAR
STARTCHAR eth
ENCODING 240
SWIDTH 476 0
DWIDTH 5 0
BBX 6 10 -1 -1
BITMAP
10
70
A8
48
04
3C
64
44
24
38
ENDCHAR
STARTCHAR ntilde
ENCODING 241
SWIDTH 584 0
DWIDTH 6 0
BBX 7 10 0 -1
BITMAP
30
0C
40
4C
F4
24
24
24
7C
06
ENDCHAR
STARTCHAR ograve
ENCODING 242
SWIDTH 400 0
DWIDTH 4 0
BBX 8 9 0 2
BITMAP
02
01
42
22
04
78
90
90
70
ENDCHAR
STARTCHAR oacute
ENCODING 243
SWIDTH 400 0
DWIDTH 4 0
BBX 8 9 0 2
BITMAP
02
01
12
22
04
78
90
90
70
ENDCHAR
STARTCHAR ocircumflex
ENCODING 244
SWIDTH 400 0
DWIDTH 4 0
BBX 8 9 0 2
BITMAP
02
01
02
22
DC
78
90
90
70
ENDCHAR
STARTCHAR otilde
ENCODING 245
SWIDTH 400 0
DWIDTH 4 0
BBX 8 9 0 2
BITMAP
02
01
02
62
1C
78
90
90
70
ENDCHAR
STARTCHAR odieresis
ENCODING 246
SWIDTH 400 0
DWIDTH 4 0
BBX 8 9 0 2
BITMAP
02
01
02
52
04
78
90
90
70
ENDCHAR
STARTCHAR divide
ENCODING 247
SWIDTH 592 0
DWIDTH 7 0
BBX 6 5 0 1
BITMAP
20
00
FC
00
20
ENDCHAR
STARTCHAR oslash
ENCODING 248
SWIDTH 396 0
DWIDTH 4 0
BBX 4 7 0 0
BITMAP
20
70
D0
D0
60
80
80
ENDCHAR
STARTCHAR ugrave
ENCODING 249
SWIDTH 744 0
DWIDTH 8 0
BBX 8 8 1 0
BITMAP
20
10
5C
C4
44
44
6F
30
ENDCHAR
STARTCHAR uacute
ENCODING 250
SWIDTH 744 0
DWIDTH 8 0
BBX 8 8 1 0
BITMAP
10
20
5C
C4
44
44
6F
30
ENDCHAR
STARTCHAR ucircumflex
ENCODING 251
SWIDTH 744 0
DWIDTH 8 0
BBX 8 8 1 0
BITMAP
20
D8
5C
C4
44
44
6F
30
ENDCHAR
STARTCHAR udieresis
ENCODING 252
SWIDTH 744 0
DWIDTH 8 0
BBX 8 8 1 0
BITMAP
28
00
5C
C4
44
44
6F
30
ENDCHAR
STARTCHAR yacute
ENCODING 253
SWIDTH 659 0
DWIDTH 7 0
BBX 7 12 0 -5
BITMAP
08
28
CE
44
44
64
3C
04
04
68
A8
70
ENDCHAR
STARTCHAR thorn
ENCODING 254
SWIDTH 514 0
DWIDTH 6 0
BBX 6 16 0 -6
BITMAP
40
C0
40
40
70
48
4C
4C
48
78
40
40
40
40
60
F0
ENDCHAR
STARTCHAR ydieresis
ENCODING 255
SWIDTH 659 0
DWIDTH 7 0
BBX 7 13 0 -5
BITMAP
14
00
20
CE
44
44
64
3C
04
04
68
A8
70
ENDCHAR
STARTCHAR dotlessi
ENCODING 305
SWIDTH 301 0
DWIDTH 3 0
BBX 3 6 0 1
BITMAP
C0
40
40
40
40
E0
ENDCHAR
STARTCHAR OE
ENCODING 338
SWIDTH 1132 0
DWIDTH 12 0
BBX 12 11 0 -2
BITMAP
0020
3FE0
4320
C300
C160
C1C0
C140
6330
3D90
01F0
0200
ENDCHAR
STARTCHAR oe
ENCODING 339
SWIDTH 798 0
DWIDTH 9 0
BBX 8 5 0 1
BITMAP
77
99
8F
CD
77
ENDCHAR
STARTCHAR circumflex
ENCODING 710
SWIDTH 483 0
DWIDTH 5 0
BBX 4 2 1 7
BITMAP
40
B0
ENDCHAR
STARTCHAR caron
ENCODING 711
SWIDTH 428 0
DWIDTH 5 0
BBX 3 3 1 8
BITMAP
A0
C0
80
ENDCHAR
STARTCHAR ring
ENCODING 730
SWIDTH 330 0
DWIDTH 4 0
BBX 3 3 1 9
BITMAP
E0
A0
E0
ENDCHAR
STARTCHAR tilde
ENCODING 732
SWIDTH 433 0
DWIDTH 5 0
BBX 3 2 1 8
BITMAP
C0
60
ENDCHAR
STARTCHAR mu.dup1
ENCODING 956
SWIDTH 634 0
DWIDTH 7 0
BBX 6 9 1 -4
BITMAP
90
88
8C
DC
EC
80
80
80
C0
ENDCHAR
STARTCHAR endash
ENCODING 8211
SWIDTH 436 0
DWIDTH 5 0
BBX 3 1 1 2
BITMAP
E0
ENDCHAR
STARTCHAR emdash
ENCODING 8212
SWIDTH 651 0
DWIDTH 7 0
BBX 6 1 1 3
BITMAP
FC
ENDCHAR
STARTCHAR quoteleft
ENCODING 8216
SWIDTH 287 0
DWIDTH 3 0
BBX 2 4 1 5
BITMAP
40
80
C0
C0
ENDCHAR
STARTCHAR quoteright
ENCODING 8217
SWIDTH 291 0
DWIDTH 3 0
BBX 2 4 1 5
BITMAP
C0
C0
40
80
ENDCHAR
STARTCHAR quotesinglbase
ENCODING 8218
SWIDTH 272 0
DWIDTH 3 0
BBX 2 4 1 -2
BITMAP
C0
C0
40
80
ENDCHAR
STARTCHAR quotedblleft
ENCODING 8220
SWIDTH 445 0
DWIDTH 5 0
BBX 4 4 1 5
BITMAP
70
A0
F0
C0
ENDCHAR
STARTCHAR quotedblright
ENCODING 8221
SWIDTH 444 0
DWIDTH 5 0
BBX 4 4 0 5
BITMAP
F0
F0
50
A0
ENDCHAR
STARTCHAR quotedblbase
ENCODING 8222
SWIDTH 482 0
DWIDTH 5 0
BBX 4 4 1 -3
BITMAP
F0
F0
50
A0
ENDCHAR
STARTCHAR bullet
ENCODING 8226
SWIDTH 351 0
DWIDTH 4 0
BBX 3 3 1 3
BITMAP
E0
E0
E0
ENDCHAR
STARTCHAR guilsinglleft
ENCODING 8249
SWIDTH 465 0
DWIDTH 5 0
BBX 4 7 1 -1
BITMAP
20
40
40
C0
40
20
10
ENDCHAR
STARTCHAR guilsinglright
ENCODING 8250
SWIDTH 449 0
DWIDTH 5 0
BBX 3 7 1 -1
BITMAP
80
80
40
60
40
80
80
ENDCHAR
STARTCHAR fraction
ENCODING 8260
SWIDTH 406 0
DWIDTH 4 0
BBX 8 10 -2 0
BITMAP
03
02
04
08
08
10
20
20
40
80
ENDCHAR
STARTCHAR foursuperior
ENCODING 8308
SWIDTH 473 0
DWIDTH 5 0
BBX 5 6 0 4
BITMAP
40
60
B0
F0
20
78
ENDCHAR
STARTCHAR Euro
ENCODING 8364
SWIDTH 799 0
DWIDTH 9 0
BBX 9 10 0 -1
BITMAP
0080
1E80
3100
2100
6800
F800
F000
6200
3200
1C00
ENDCHAR
STARTCHAR minus
ENCODING 8722
SWIDTH 436 0
DWIDTH 5 0
BBX 3 1 1 2
BITMAP
E0
ENDCHAR
STARTCHAR f_f
ENCODING 64256
SWIDTH 467 0
DWIDTH 5 0
BBX 7 17 0 -4
BITMAP
30
58
4C
52
56
50
50
78
D0
50
50
48
4C
70
60
60
F0
ENDCHAR
STARTCHAR .notdef
ENCODING -1
SWIDTH 270 0
DWIDTH 3 0
BBX 3 7 0 0
BITMAP
E0
A0
A0
A0
A0
A0
E0
ENDCHAR
STARTCHAR .null
ENCODING -1
SWIDTH 0 0
DWIDTH 0 0
BBX 1 1 0 0
BITMAP
00
ENDCHAR
STARTCHAR nonmarkingreturn
ENCODING -1
SWIDTH 270 0
DWIDTH 3 0
BBX 1 1 0 0
BITMAP
00
ENDCHAR
STARTCHAR dieresis.case
ENCODING -1
SWIDTH 393 0
DWIDTH 4 0
BBX 3 2 1 8
BITMAP
80
A0
ENDCHAR
STARTCHAR o.cmp
ENCODING -1
SWIDTH 400 0
DWIDTH 4 0
BBX 8 9 0 2
BITMAP
02
01
02
02
04
78
90
90
70
ENDCHAR
STARTCHAR n_n
ENCODING -1
SWIDTH 1024 0
DWIDTH 11 0
BBX 11 8 0 -1
BITMAP
4000
DF00
6560
25A0
2520
27E0
6C00
1200
ENDCHAR
STARTCHAR a_a
ENCODING -1
SWIDTH 911 0
DWIDTH 10 0
BBX 10 8 0 0
BITMAP
0700
0480
E080
A780
2C80
6C80
97C0
F8C0
ENDCHAR
STARTCHAR t_h
ENCODING -1
SWIDTH 854 0
DWIDTH 9 0
BBX 10 14 -1 -3
BITMAP
1C00
0400
0400
1400
1400
FE00
2780
24C0
2540
3540
1EC0
1E80
0180
0040
ENDCHAR
STARTCHAR s_s
ENCODING -1
SWIDTH 654 0
DWIDTH 7 0
BBX 8 11 -1 -2
BITMAP
0A
3E
2A
28
14
8A
8A
7B
BB
22
1E
ENDCHAR
STARTCHAR t_t
ENCODING -1
SWIDTH 569 0
DWIDTH 6 0
BBX 6 10 0 -1
BITMAP
10
7C
F0
50
50
50
54
4C
2C
38
ENDCHAR
STARTCHAR e_e
ENCODING -1
SWIDTH 782 0
DWIDTH 9 0
BBX 9 6 0 0
BITMAP
6700
9900
E900
CE80
7C80
0300
ENDCHAR
STARTCHAR o_o
ENCODING -1
SWIDTH 751 0
DWIDTH 8 0
BBX 12 10 0 1
BITMAP
0020
0010
0020
0020
0040
7F80
C900
9900
9F00
7000
ENDCHAR
STARTCHAR l_l
ENCODING -1
SWIDTH 573 0
DWIDTH 6 0
BBX 7 11 0 -2
BITMAP
58
C8
48
48
48
48
48
4C
4E
D0
20
ENDCHAR
STARTCHAR z_z
ENCODING -1
SWIDTH 875 0
DWIDTH 10 0
BBX 10 7 0 -1
BITMAP
1E00
7C00
9400
2500
2F40
4040
FF80
ENDCHAR
STARTCHAR j_j
ENCODING -1
SWIDTH 577 0
DWIDTH 6 0
BBX 7 15 -1 -7
BITMAP
06
06
10
1C
7C
1E
0A
0A
0A
0A
CA
8A
92
74
18
ENDCHAR
STARTCHAR f_b
ENCODING -1
SWIDTH 731 0
DWIDTH 8 0
BBX 9 14 -1 -2
BITMAP
1C00
2400
2C00
2400
2C00
F400
2400
2400
2780
2480
2480
2F00
3800
C000
ENDCHAR
STARTCHAR f_k
ENCODING -1
SWIDTH 708 0
DWIDTH 8 0
BBX 8 12 0 -1
BITMAP
10
7C
54
5C
50
56
D8
58
5A
55
D3
3C
ENDCHAR
STARTCHAR f_h
ENCODING -1
SWIDTH 873 0
DWIDTH 10 0
BBX 10 14 -1 -2
BITMAP
1C00
2400
2C00
2C00
2C00
3400
E400
2780
2480
2480
24C0
2D00
3A00
C000
ENDCHAR
ENDFONT
